<?xml version="1.0" encoding="UTF-8" standalone="no"?>
<!-- Generator: Adobe Illustrator 19.2.1, SVG Export Plug-In . SVG Version: 6.00 Build 0)  -->

<svg
   xmlns:dc="http://purl.org/dc/elements/1.1/"
   xmlns:cc="http://creativecommons.org/ns#"
   xmlns:rdf="http://www.w3.org/1999/02/22-rdf-syntax-ns#"
   xmlns:svg="http://www.w3.org/2000/svg"
   xmlns="http://www.w3.org/2000/svg"
   xmlns:sodipodi="http://sodipodi.sourceforge.net/DTD/sodipodi-0.dtd"
   xmlns:inkscape="http://www.inkscape.org/namespaces/inkscape"
   version="1.1"
   x="0px"
   y="0px"
   width="300"
   height="157"
   viewBox="0 0 840.5 438.22281"
   xml:space="preserve"
   id="svg712"
   sodipodi:docname="logo.svg"
   inkscape:export-filename="/var/www/html/labs/execoore/media/logo.svg.png"
   inkscape:export-xdpi="96"
   inkscape:export-ydpi="96"
   inkscape:version="0.92.4 (5da689c313, 2019-01-14)"><metadata
   id="metadata718"><rdf:RDF><cc:Work
       rdf:about=""><dc:format>image/svg+xml</dc:format><dc:type
         rdf:resource="http://purl.org/dc/dcmitype/StillImage" /><dc:title></dc:title></cc:Work></rdf:RDF></metadata><defs
   id="defs716" /><sodipodi:namedview
   pagecolor="#ffffff"
   bordercolor="#666666"
   borderopacity="1"
   objecttolerance="10"
   gridtolerance="10"
   guidetolerance="10"
   inkscape:pageopacity="0"
   inkscape:pageshadow="2"
   inkscape:window-width="1024"
   inkscape:window-height="744"
   id="namedview714"
   showgrid="false"
   inkscape:zoom="1.0654479"
   inkscape:cx="232.54314"
   inkscape:cy="1.1672375"
   inkscape:window-x="0"
   inkscape:window-y="0"
   inkscape:window-maximized="1"
   inkscape:current-layer="svg712" />
<style
   type="text/css"
   id="style2">
	.st0{display:none;}
	.st1{display:inline;fill:none;}
	.st2{display:inline;fill:#FF6600;}
	.st3{display:inline;fill:#262E3A;}
	.st4{display:inline;}
	.st5{fill:none;}
	.st6{fill:#FF6600;}
	.st7{display:inline;fill:#FFFBF8;}
	.st8{fill:#FFFFFF;}
	.st9{fill:#00BDC7;}
	.st10{display:none;fill:#5E3838;}
	.st11{font-family:'Montserrat-Black';}
	.st12{font-size:97px;}
</style>
<g
   id="Background"
   transform="translate(0,280.16667)">
</g>

<path
   inkscape:connector-curvature="0"
   id="path739"
   d="M 86.249053,235.72878 C 85.340904,234.17667 75.742399,218.89131 64.919045,201.76131 54.095691,184.6313 44.38456,168.42817 43.338783,165.75436 41.561413,161.21005 41.4388,157.04618 41.459758,101.93169 41.485272,34.894368 41.218907,37.167364 49.706975,31.549943 l 4.34527,-2.875739 137.768925,-0.269773 c 99.10924,-0.194073 138.96079,0.05061 142.01642,0.871966 2.61651,0.703316 5.67781,2.643738 7.97219,5.053203 5.84427,6.137412 6.19411,10.13823 5.80323,66.36609 l -0.3374,48.53474 -2.57459,5.07632 c -2.0398,4.02184 -3.63069,5.60659 -7.65872,7.6292 l -5.08413,2.55291 -114.88082,0.51058 c -110.25543,0.49003 -115.00885,0.58811 -118.061187,2.43603 -6.819095,4.12838 -6.976552,4.95154 -7.541831,39.41872 -0.436178,26.59528 -0.733815,31.17363 -2.04235,31.41457 -0.842432,0.15511 -2.274781,-0.98788 -3.182929,-2.53998 z m 42.581537,-97.31211 c 8.8414,-4.53915 13.10474,-10.2962 14.09293,-19.03051 1.86553,-16.48942 -3.46534,-22.907229 -26.62535,-32.054047 -10.01121,-3.953836 -12.13626,-5.330868 -14.10662,-9.141129 -1.42131,-2.748552 -1.4224,-3.357121 -0.0106,-6.087088 0.8627,-1.668269 2.5644,-3.566174 3.78152,-4.217565 2.55299,-1.366323 14.88841,-0.642695 18.06999,1.060029 3.14998,1.685815 8.79766,1.309821 10.54594,-0.702095 6.46012,-7.434312 -0.26144,-14.473322 -16.7769,-17.569261 -7.64367,-1.43286 -13.86855,-0.497462 -22.0908,3.319542 -4.873078,2.262211 -12.043464,10.451001 -13.010732,14.858597 -0.327051,1.490445 -0.939785,3.858709 -1.361639,5.262807 -0.848665,2.824905 0.737971,9.983226 3.318153,14.970249 2.660442,5.142149 8.190103,8.942799 21.472158,14.758251 6.81968,2.98594 13.43492,6.54635 14.70059,7.91203 2.9884,3.22452 2.92378,7.47557 -0.16814,11.06306 -2.30959,2.67975 -2.95378,2.85774 -9.95632,2.75081 -5.22874,-0.0799 -8.97556,-0.77286 -12.422161,-2.29762 -8.674246,-3.83742 -13.985909,-2.66565 -16.032924,3.5369 -1.064221,3.22457 -0.970002,4.02703 0.74198,6.32003 4.497515,6.02396 15.403716,9.4305 29.072885,9.0809 8.99784,-0.23012 10.47615,-0.56463 16.76612,-3.79389 z m 159.53408,1.9797 c 11.56757,-3.90644 18.57501,-13.62293 18.57501,-25.75606 0,-9.87035 -5.67649,-18.244587 -15.16511,-22.372314 -2.61117,-1.1359 -6.67532,-2.927656 -9.03148,-3.981682 -2.35615,-1.054026 -4.60343,-1.91641 -4.99396,-1.91641 -0.39053,0 -2.67437,-0.981031 -5.07522,-2.18007 -8.03003,-4.010396 -9.90338,-12.562209 -3.50029,-15.97889 2.88347,-1.538618 14.90084,-1.054219 18.2448,0.735416 3.83213,2.05089 8.97787,1.318266 11.27784,-1.60568 5.66082,-7.196559 -0.61346,-13.224163 -17.48828,-16.800735 -11.87524,-2.516927 -25.07806,2.691638 -31.8642,12.570559 -3.78407,5.508651 -4.01425,6.277355 -4.01425,13.40557 0,13.530191 5.21066,19.205656 25.59022,27.872966 12.40598,5.27618 13.10744,5.72596 15.17965,9.73318 1.31596,2.54478 1.30558,3.24043 -0.0885,5.93644 -2.6604,5.14464 -5.78428,6.51207 -13.27807,5.81229 -3.60514,-0.33665 -8.39366,-1.55021 -10.64116,-2.69681 -8.36739,-4.26869 -16.42173,-1.7523 -16.42173,5.13057 0,4.53933 1.5558,6.78991 6.41642,9.2818 10.44824,5.35651 25.32525,6.50878 36.27834,2.80986 z m -123.11133,-1.67441 c 1.60223,-1.44392 1.78703,-4.00953 1.78703,-24.81128 0,-22.636056 0.4805,-29.583101 2.0461,-29.583101 1.16635,0 2.37287,3.595297 9.76646,29.103141 3.74431,12.91771 7.51446,24.29091 8.37811,25.27378 2.12997,2.42397 7.61862,2.30276 9.90048,-0.21864 0.99832,-1.10313 4.72936,-12.24657 8.29121,-24.7632 8.28734,-29.122282 8.72379,-30.454789 9.76457,-29.811551 0.47789,0.295352 0.86889,11.323441 0.86889,24.506861 0,18.64148 0.32952,24.75852 1.48235,27.51763 2.72989,6.53353 11.22536,7.18134 14.9466,1.13971 1.88621,-3.06236 1.97073,-5.12235 1.71276,-41.742882 -0.26985,-38.306668 -0.28405,-38.534238 -2.54758,-40.796754 -1.76207,-1.761278 -3.77444,-2.370608 -8.90893,-2.697547 -11.59873,-0.73855 -13.41656,0.540541 -16.4228,11.555614 -0.9197,3.369837 -2.06014,7.505546 -2.53429,9.190465 -0.4742,1.684919 -1.77551,6.509915 -2.89182,10.722209 -5.4225,20.461565 -6.52281,24.026425 -7.62635,24.708445 -1.78736,1.10465 -2.14273,0.30716 -5.77711,-12.965071 -8.27561,-30.22122 -11.20442,-39.698648 -12.74379,-41.238006 -1.2738,-1.273813 -3.73312,-1.650832 -10.76835,-1.650832 -13.80975,0 -12.70683,-3.514257 -13.0708,41.647795 -0.16843,20.901594 -0.0266,39.529944 0.31557,41.396324 1.05617,5.76367 9.25757,7.81927 14.03169,3.51689 z"
   style="fill:#9ea3a5;stroke-width:1.02116287"
   sodipodi:nodetypes="cscsccscssccscscsccccscccscscccssccccccscccsccscsccssssccscsccccsscccssssssssscccscsscc" /><path
   inkscape:connector-curvature="0"
   id="path737"
   d="M 85.929036,231.37503 C 71.103319,208.60801 45.999808,167.7816 44.879821,164.61576 43.75506,161.43649 43.479656,148.96272 43.479656,101.19939 V 41.740764 l 2.297634,-3.375895 c 1.263703,-1.856748 3.594979,-4.3372 5.180631,-5.512118 l 2.883032,-2.136223 H 193.92074 c 156.22493,0 143.98627,-0.575345 148.66106,6.988625 2.10456,3.405247 2.14091,4.400193 2.14091,58.59061 V 151.4223 l -2.30109,3.41458 c -1.2656,1.87802 -3.90786,4.35848 -5.87169,5.51212 -3.53098,2.07426 -4.85771,2.10321 -119.55265,2.60812 l -115.98207,0.51058 -3.750356,2.86098 c -7.171807,5.47107 -7.263657,5.93449 -7.832872,39.51728 l -0.510569,30.1243 z m 38.600024,-88.87909 c 11.45461,-4.28571 17.262,-10.33982 19.65298,-20.48785 1.74158,-7.39179 1.19744,-13.73583 -1.6533,-19.27561 -3.57992,-6.956719 -9.4951,-10.869539 -26.12975,-17.284546 -7.39068,-2.850137 -10.99944,-5.328746 -13.04237,-8.957844 -1.07774,-1.914547 1.52621,-6.453358 4.06837,-7.091402 3.28528,-0.82455 12.28913,0.01425 17.97253,1.674334 4.26935,1.247039 5.22619,1.214246 8.37435,-0.287002 2.77248,-1.322096 3.80328,-2.619707 4.68639,-5.899349 1.03681,-3.850402 0.91252,-4.492372 -1.47587,-7.623749 -7.39761,-9.698746 -34.00377,-11.547237 -45.381618,-3.152936 -11.184667,8.251795 -15.198074,22.865061 -9.376389,34.140663 3.52088,6.819362 9.081631,11.024115 22.455867,16.979951 14.40922,6.41675 16.40779,7.8702 16.40779,11.93246 0,6.98847 -8.73832,9.07344 -20.19347,4.81818 -12.203073,-4.5331 -17.421173,-3.56422 -20.215891,3.75359 -1.636861,4.28607 -1.619986,4.55298 0.504956,7.99125 5.620454,9.09403 29.542705,13.93411 43.345425,8.76986 z m 164.01331,-0.11726 c 15.74413,-5.31687 24.06284,-21.5247 18.86987,-36.76525 -2.79703,-8.208823 -10.33462,-13.675307 -28.55454,-20.708599 -10.51328,-4.058358 -14.29714,-9.337921 -10.05335,-14.027252 2.14958,-2.375266 10.95503,-2.509251 18.22266,-0.277282 6.95615,2.136314 11.30677,1.217144 13.83059,-2.922025 2.64951,-4.345335 2.51323,-7.088912 -0.53191,-10.707852 -6.35922,-7.557504 -25.75059,-10.797082 -37.80659,-6.316079 -7.82892,2.909873 -16.14466,11.01184 -17.96543,17.503596 -1.86322,6.643105 -1.41552,14.513802 1.12399,19.759716 3.38459,6.991627 9.6923,11.807191 22.67082,17.307817 11.61538,4.9229 14.49473,6.68966 16.25119,9.97164 1.36898,2.55795 -1.55482,7.74187 -4.83018,8.56394 -4.03949,1.01384 -12.66356,-0.23181 -17.76097,-2.5654 -2.52738,-1.15703 -6.25647,-2.11377 -8.28688,-2.12611 -7.70838,-0.0469 -12.33763,7.9067 -8.61996,14.80998 4.85042,9.0067 28.33309,13.60108 43.44069,8.49916 z m -121.24672,-3.00736 c 1.58146,-1.91992 1.78707,-4.7412 1.78707,-24.52198 0,-12.29385 0.39437,-22.352459 0.8764,-22.352459 0.82027,0 3.75575,9.125019 9.19805,28.592559 5.35095,19.14071 7.01329,21.73609 13.60797,21.24577 5.47073,-0.40675 7.54621,-3.20465 10.5856,-14.27023 1.28521,-4.67901 3.53473,-12.64299 4.99897,-17.69775 1.46422,-5.05475 3.19952,-11.113938 3.8562,-13.464852 0.65666,-2.350915 1.56186,-4.047009 2.01154,-3.769093 0.44966,0.277911 0.81758,10.092905 0.81758,21.811095 v 21.30581 l 2.64368,3.14183 c 2.29759,2.73054 3.30658,3.14184 7.70748,3.14184 4.16421,0 5.50866,-0.48002 7.56795,-2.70202 l 2.50415,-2.70202 V 96.386006 55.642185 l -2.5065,-2.506491 c -2.30781,-2.307807 -3.27195,-2.506487 -12.16317,-2.506487 -9.40827,0 -9.72097,0.07639 -12.15553,2.969699 -1.37436,1.633337 -3.04704,5.194641 -3.71711,7.914013 -3.51107,14.249635 -11.67945,42.216751 -12.33031,42.216751 -0.41209,0 -2.25397,-5.399397 -4.09308,-11.998661 -12.4038,-44.508299 -10.37315,-41.101802 -24.50117,-41.101802 -11.1305,0 -13.70551,1.285207 -14.82535,7.399394 -0.33471,1.827549 -0.47073,20.392343 -0.3023,41.255097 0.28845,35.724832 0.42028,38.058202 2.26552,40.096082 4.02945,4.45007 12.49754,4.44564 16.16636,-0.008 z"
   style="fill:#108c8e;stroke-width:1.02116287"
   sodipodi:nodetypes="scscsccssscscsccscssscccccsccccsssccsssscscsssssccsccscssssccccsccscccccsccssscsccc" /><path
   inkscape:connector-curvature="0"
   id="path735"
   d="m 273.49742,402.01963 c -2.24656,-0.25569 -7.30132,-1.3994 -11.23279,-2.54158 -23.12335,-6.71781 -39.6062,-23.86337 -46.67747,-48.55415 -1.95136,-6.81359 -2.28305,-10.42759 -2.27834,-24.82377 0.005,-14.72136 0.30421,-17.81638 2.37085,-24.50791 4.05893,-13.14232 8.8241,-21.05969 18.4525,-30.65894 13.57132,-13.53025 27.13098,-19.1447 48.55571,-20.10478 19.30084,-0.86491 34.34134,4.36593 46.64945,16.2239 3.39516,3.27099 6.75026,5.94726 7.45577,5.94726 1.16959,0 2.40089,-3.51591 4.1126,-11.74337 1.46096,-7.0222 2.59074,-7.65872 13.59347,-7.65872 6.40367,0 10.42329,0.43943 11.20925,1.22539 0.92931,0.92931 1.2254,18.18318 1.2254,71.40846 0,62.44124 -0.17701,70.36008 -1.60469,71.78775 -1.22808,1.22809 -3.82712,1.60468 -11.07452,1.60468 -11.47059,0 -12.06833,-0.46707 -14.30092,-11.17461 -0.86967,-4.17096 -2.0531,-8.05545 -2.62986,-8.63222 -0.71743,-0.71743 -3.22206,1.0766 -7.92962,5.67986 -12.17243,11.90275 -21.88571,15.90422 -40.2174,16.56788 -6.37711,0.23088 -13.43283,0.21056 -15.67939,-0.0451 z m 24.18238,-29.3949 c 10.00676,-1.78453 18.68053,-6.38665 25.37192,-13.4618 16.29833,-17.23308 16.57605,-46.72818 0.60632,-64.39438 -13.62286,-15.07004 -39.69121,-19.28418 -58.84487,-9.51271 -16.06068,8.19355 -25.81356,29.34083 -22.53373,48.86017 3.6459,21.69795 17.04438,35.3248 38.20956,38.86085 7.40414,1.23699 8.39343,1.21673 17.1908,-0.35213 z m 152.47879,29.09497 c -12.23489,-2.0471 -21.75601,-6.98923 -31.14547,-16.16667 -4.90821,-4.79739 -7.02419,-6.24938 -8.12152,-5.57303 -0.81618,0.50305 -2.34992,4.55431 -3.40832,9.0028 -1.0584,4.44848 -2.66117,8.66255 -3.56174,9.3646 -1.00429,0.78292 -4.8567,1.27645 -9.96381,1.27645 -6.76966,0 -8.64243,-0.34915 -10.01645,-1.86744 -1.54992,-1.71264 -1.69002,-10.72794 -1.69002,-108.75384 0,-105.52485 0.026,-106.91242 2.04233,-108.92873 1.78459,-1.78459 3.40387,-2.04232 12.83166,-2.04232 5.93414,0 11.67818,0.47568 12.76454,1.05708 1.90391,1.01895 1.97519,2.58048 1.97519,43.27178 0,41.65588 0.32347,48.59696 2.26466,48.59696 0.5435,0 3.69743,-2.45174 7.00874,-5.44829 14.36833,-13.0026 36.00594,-17.98968 58.07583,-13.38545 35.43076,7.39159 56.21147,34.80686 56.21147,74.15785 0,16.65011 -2.09633,26.57611 -8.15699,38.62287 -8.40235,16.70131 -22.72293,28.85123 -40.34824,34.23241 -9.09672,2.77732 -27.76207,4.08878 -36.76186,2.58297 z m 23.96659,-30.32689 c 12.56006,-3.53099 21.53574,-10.87374 27.13111,-22.19521 11.40609,-23.07867 3.23852,-53.11738 -17.29779,-63.61781 -8.08331,-4.13307 -13.77099,-5.40988 -24.09886,-5.40988 -15.12523,0 -25.43925,4.04655 -34.36254,13.48162 -8.68782,9.18607 -12.86624,19.88987 -12.86624,32.95918 0,32.64186 29.15513,53.87355 61.49432,44.7821 z m 94.99888,27.79085 c -15.69987,-4.20244 -27.92061,-10.15512 -28.95299,-14.1029 -0.67184,-2.56915 7.94675,-19.80421 10.79151,-21.58033 1.36642,-0.85313 3.16138,-0.37845 8.1693,2.16036 11.10137,5.62792 18.49127,7.81186 29.90485,8.83775 17.73518,1.5941 32.14965,-5.13118 32.1628,-15.00604 0.0106,-7.78527 -7.03651,-13.35587 -22.97179,-18.15918 -30.21741,-9.10836 -37.86694,-12.60028 -46.48781,-21.22115 -7.674,-7.67399 -10.38695,-14.65858 -10.36667,-26.68925 0.0196,-11.60744 2.62042,-18.53153 9.92413,-26.42041 10.5261,-11.36944 24.74044,-16.46843 45.90863,-16.46843 15.10218,0 24.00875,1.98894 37.06231,8.27642 11.91473,5.73895 12.19975,6.6529 5.91649,18.97294 -2.71286,5.31933 -5.59345,9.92513 -6.40129,10.23513 -0.80781,0.30999 -5.00276,-1.0649 -9.32208,-3.05532 -10.87938,-5.0134 -18.13356,-6.85964 -26.90199,-6.84673 -11.77925,0.0174 -22.08544,3.81144 -24.84404,9.146 -0.85197,1.64751 -1.54903,4.7054 -1.54903,6.79532 0,3.15254 0.74903,4.50929 4.39715,7.96472 4.89678,4.63813 10.79095,7.12465 27.76946,11.71486 35.50804,9.59972 47.80041,21.07181 47.71337,44.52934 -0.0751,20.23156 -10.86312,33.86965 -32.27095,40.79653 -7.32219,2.36922 -9.52236,2.59574 -24.5079,2.52331 -13.73159,-0.0664 -17.90393,-0.46512 -25.14346,-2.40294 z M 106.28202,398.5209 c -1.68414,-0.98091 -1.78707,-7.26264 -1.78707,-109.0751 0,-103.36497 0.0807,-108.1073 1.86747,-109.72427 1.51957,-1.37521 4.15312,-1.69001 14.13801,-1.69001 10.59067,0 12.50195,0.25566 13.96058,1.86744 1.5464,1.70874 1.69135,9.80124 1.70564,95.22343 0.009,56.99675 0.39244,93.95256 0.98312,94.88774 0.82151,1.30064 6.63532,1.60878 38.53326,2.04233 l 37.56578,0.51058 0.28865,12.10912 c 0.19201,8.05473 -0.10629,12.585 -0.8909,13.53041 -0.97997,1.18079 -9.9276,1.41602 -52.87855,1.39023 -33.2112,-0.0199 -52.33801,-0.40327 -53.48599,-1.0719 z"
   style="fill:#ffffff;stroke-width:1.02116287" /></svg>